<svg width="19" height="16" viewBox="0 0 19 16" fill="none" xmlns="http://www.w3.org/2000/svg">
<path d="M9.2381 16C8.94855 16 8.70585 15.9148 8.50998 15.7444C8.31411 15.5741 8.21618 15.363 8.21618 15.1111V8.91111C7.12613 8.91111 6.07866 8.72963 5.07377 8.36667C4.06888 8.0037 3.18322 7.48889 2.41678 6.82222C1.65034 6.15556 1.06274 5.38519 0.653969 4.51111C0.245201 3.63704 0.0408173 2.72593 0.0408173 1.77778V0.888889C0.0408173 0.637037 0.138751 0.425926 0.334619 0.255556C0.530487 0.0851852 0.773193 0 1.06274 0H2.08466C3.15767 0 4.19662 0.181481 5.20151 0.544444C6.2064 0.907407 7.09206 1.42222 7.8585 2.08889C8.3865 2.54815 8.82507 3.05185 9.17423 3.6C9.52338 4.14815 9.79164 4.73333 9.97899 5.35556C10.0641 5.25185 10.1578 5.15185 10.26 5.05556C10.3622 4.95926 10.4729 4.85926 10.5921 4.75556C11.3586 4.08889 12.2442 3.57407 13.2491 3.21111C14.254 2.84815 15.3015 2.66667 16.3915 2.66667H17.4135C17.703 2.66667 17.9457 2.75185 18.1416 2.92222C18.3374 3.09259 18.4354 3.3037 18.4354 3.55556V4.44444C18.4354 5.39259 18.2267 6.3037 17.8095 7.17778C17.3922 8.05185 16.8003 8.82222 16.0339 9.48889C15.2674 10.1556 14.386 10.6667 13.3896 11.0222C12.3933 11.3778 11.3501 11.5556 10.26 11.5556V15.1111C10.26 15.363 10.1621 15.5741 9.96621 15.7444C9.77035 15.9148 9.52764 16 9.2381 16ZM8.21618 7.11111C8.21618 6.4 8.05863 5.72222 7.74354 5.07778C7.42845 4.43333 6.98136 3.85926 6.40227 3.35556C5.82318 2.85185 5.16319 2.46296 4.4223 2.18889C3.68141 1.91481 2.90219 1.77778 2.08466 1.77778C2.08466 2.48889 2.23795 3.17037 2.54452 3.82222C2.8511 4.47407 3.29393 5.05185 3.87302 5.55556C4.4521 6.05926 5.11635 6.44444 5.86576 6.71111C6.61517 6.97778 7.39864 7.11111 8.21618 7.11111ZM10.26 9.77778C11.0776 9.77778 11.8568 9.64444 12.5977 9.37778C13.3385 9.11111 13.9985 8.72593 14.5776 8.22222C15.1567 7.71852 15.6038 7.14074 15.9189 6.48889C16.234 5.83704 16.3915 5.15556 16.3915 4.44444C15.574 4.44444 14.7905 4.58148 14.0411 4.85556C13.2917 5.12963 12.6275 5.51852 12.0484 6.02222C11.4693 6.52593 11.0265 7.1 10.7199 7.74444C10.4133 8.38889 10.26 9.06667 10.26 9.77778Z" fill="#C6ECCD"/>
</svg>
