<svg width="25" height="16" viewBox="0 0 25 16" fill="none" xmlns="http://www.w3.org/2000/svg">
<path d="M16.6435 6.49239C17.313 4.93602 18.3841 3.54905 19.7596 2.43736C20.2221 2.05621 19.8083 1.3786 19.1997 1.53742C15.1585 2.575 12.2007 5.82537 12.2129 9.67924C13.3692 8.32403 14.8907 7.23352 16.6435 6.49239ZM11.5069 4.19489C10.7766 2.54323 9.52286 1.11392 7.90398 0.0975114C7.39275 -0.220115 6.73546 0.298675 7.02759 0.785702C8.00135 2.39501 8.56127 4.22665 8.56127 6.16417C8.56127 6.38651 8.52475 6.59826 8.51258 6.81001C9.03598 7.06411 9.52286 7.36057 9.99757 7.67819C10.2532 6.42886 10.7888 5.25364 11.5069 4.19489ZM12.2129 16H1.25802C0.58856 16 0.0408173 15.5236 0.0408173 14.9412C0.0408173 14.3589 0.58856 13.8825 1.25802 13.8825H7.03976C6.34595 11.5638 4.55666 9.6263 2.17093 8.5252C1.97618 8.44049 1.85446 8.26051 1.85446 8.05934C1.85446 7.77348 2.12224 7.54055 2.45089 7.52997C2.46306 7.52997 2.47523 7.52997 2.47523 7.52997C7.85529 7.52997 12.2129 11.3203 12.2129 16ZM22.267 8.5252C19.8813 9.6263 18.0798 11.5638 17.3982 13.8825H23.1678C23.8372 13.8825 24.385 14.3589 24.385 14.9412C24.385 15.5236 23.8372 16 23.1678 16H17.0817H14.6473C14.6473 15.28 14.5621 14.5707 14.4039 13.8825C14.2213 13.1202 13.9413 12.3791 13.5883 11.6909C15.2803 9.2028 18.3841 7.52997 21.9505 7.52997C21.9627 7.52997 21.9749 7.52997 21.9749 7.52997C22.3035 7.52997 22.5713 7.77348 22.5713 8.05934C22.5835 8.26051 22.4496 8.42991 22.267 8.5252Z" fill="#C6ECCD"/>
</svg>
