<svg width="36" height="24" viewBox="0 0 36 24" fill="none" xmlns="http://www.w3.org/2000/svg">
<path d="M2 24C1.43333 24 0.958333 23.8083 0.575 23.425C0.191667 23.0417 0 22.5667 0 22C0 21.4333 0.191667 20.9583 0.575 20.575C0.958333 20.1917 1.43333 20 2 20H34C34.5667 20 35.0417 20.1917 35.425 20.575C35.8083 20.9583 36 21.4333 36 22C36 22.5667 35.8083 23.0417 35.425 23.425C35.0417 23.8083 34.5667 24 34 24H2ZM2 14C1.43333 14 0.958333 13.8083 0.575 13.425C0.191667 13.0417 0 12.5667 0 12C0 11.4333 0.191667 10.9583 0.575 10.575C0.958333 10.1917 1.43333 10 2 10H34C34.5667 10 35.0417 10.1917 35.425 10.575C35.8083 10.9583 36 11.4333 36 12C36 12.5667 35.8083 13.0417 35.425 13.425C35.0417 13.8083 34.5667 14 34 14H2ZM2 4C1.43333 4 0.958333 3.80833 0.575 3.425C0.191667 3.04167 0 2.56667 0 2C0 1.43333 0.191667 0.958333 0.575 0.575C0.958333 0.191667 1.43333 0 2 0H34C34.5667 0 35.0417 0.191667 35.425 0.575C35.8083 0.958333 36 1.43333 36 2C36 2.56667 35.8083 3.04167 35.425 3.425C35.0417 3.80833 34.5667 4 34 4H2Z" fill="#E8E2D9"/>
</svg>
