<svg width="16" height="16" viewBox="0 0 16 16" fill="none" xmlns="http://www.w3.org/2000/svg">
<path d="M8 14.42C7.56 14.42 7.18333 14.26 6.87 13.94C6.55667 13.62 6.4 13.24 6.4 12.8C6.4 12.36 6.55667 11.9833 6.87 11.67C7.18333 11.3567 7.56 11.2 8 11.2L8.48 10.74C8.58667 10.6333 8.71 10.55 8.85 10.49C8.99 10.43 9.13333 10.4 9.28 10.4C9.58667 10.4 9.85 10.5133 10.07 10.74C10.29 10.9667 10.4 11.2333 10.4 11.54V11.88C10.4 12.1467 10.4867 12.3667 10.66 12.54C10.8333 12.7133 11.0533 12.8 11.32 12.8C11.52 12.8 11.7 12.74 11.86 12.62C12.02 12.5 12.1333 12.3467 12.2 12.16L12.44 11.5C12.56 11.18 12.7533 10.9167 13.02 10.71C13.2867 10.5033 13.5933 10.4 13.94 10.4C14.0867 10.0267 14.2033 9.64 14.29 9.24C14.3767 8.84 14.42 8.42667 14.42 8C14.42 6.81333 14.1233 5.73 13.53 4.75C12.9367 3.77 12.16 3 11.2 2.44V3.2C11.2 3.64 11.0433 4.01667 10.73 4.33C10.4167 4.64333 10.04 4.8 9.6 4.8H8.8V6.4C8.8 6.62667 8.72333 6.81667 8.57 6.97C8.41667 7.12333 8.22667 7.2 8 7.2H7.2V8.56C7.2 8.85333 7.1 9.1 6.9 9.3C6.7 9.5 6.45333 9.6 6.16 9.6C5.97333 9.6 5.80333 9.56 5.65 9.48C5.49667 9.4 5.37333 9.28667 5.28 9.14L4 7.2H3.2V8C3.2 8.41333 3.06 8.76667 2.78 9.06C2.5 9.35333 2.16667 9.52667 1.78 9.58C2.12667 10.9667 2.87667 12.12 4.03 13.04C5.18333 13.96 6.50667 14.42 8 14.42ZM9.6 9.6C9.37333 9.6 9.18333 9.52333 9.03 9.37C8.87667 9.21667 8.8 9.02667 8.8 8.8C8.8 8.57333 8.87667 8.38333 9.03 8.23C9.18333 8.07667 9.37333 8 9.6 8H10.4C10.6267 8 10.8167 8.07667 10.97 8.23C11.1233 8.38333 11.2 8.57333 11.2 8.8C11.2 9.02667 11.1233 9.21667 10.97 9.37C10.8167 9.52333 10.6267 9.6 10.4 9.6H9.6ZM11.46 7.2C11.1933 7.2 10.9833 7.09667 10.83 6.89C10.6767 6.68333 10.64 6.45333 10.72 6.2L11.02 5.32C11.0733 5.16 11.1667 5.03333 11.3 4.94C11.4333 4.84667 11.58 4.8 11.74 4.8C12.0067 4.8 12.2167 4.90333 12.37 5.11C12.5233 5.31667 12.56 5.54667 12.48 5.8L12.18 6.68C12.1267 6.84 12.0333 6.96667 11.9 7.06C11.7667 7.15333 11.62 7.2 11.46 7.2ZM8 16C6.89333 16 5.85333 15.79 4.88 15.37C3.90667 14.95 3.06 14.38 2.34 13.66C1.62 12.94 1.05 12.0933 0.63 11.12C0.21 10.1467 0 9.10667 0 8C0 6.89333 0.21 5.85333 0.63 4.88C1.05 3.90667 1.62 3.06 2.34 2.34C3.06 1.62 3.90667 1.05 4.88 0.63C5.85333 0.21 6.89333 0 8 0C9.10667 0 10.1467 0.21 11.12 0.63C12.0933 1.05 12.94 1.62 13.66 2.34C14.38 3.06 14.95 3.90667 15.37 4.88C15.79 5.85333 16 6.89333 16 8C16 9.10667 15.79 10.1467 15.37 11.12C14.95 12.0933 14.38 12.94 13.66 13.66C12.94 14.38 12.0933 14.95 11.12 15.37C10.1467 15.79 9.10667 16 8 16Z" fill="#C6ECCD"/>
</svg>
