<svg width="24" height="17" viewBox="0 0 24 17" fill="none" xmlns="http://www.w3.org/2000/svg">
<path d="M7 16.5H1C0.716667 16.5 0.479167 16.4036 0.2875 16.2108C0.0958333 16.018 0 15.7791 0 15.4942C0 15.2092 0.0958333 14.9722 0.2875 14.7833C0.479167 14.5944 0.716667 14.5 1 14.5H7C7.28333 14.5 7.52083 14.5964 7.7125 14.7892C7.90417 14.982 8 15.2209 8 15.5058C8 15.7908 7.90417 16.0278 7.7125 16.2167C7.52083 16.4056 7.28333 16.5 7 16.5ZM23 2.5H1C0.716667 2.5 0.479167 2.40361 0.2875 2.21083C0.0958333 2.01803 0 1.77914 0 1.49417C0 1.20917 0.0958333 0.972222 0.2875 0.783333C0.479167 0.594444 0.716667 0.5 1 0.5H23C23.2833 0.5 23.5208 0.596388 23.7125 0.789166C23.9042 0.981966 24 1.22086 24 1.50583C24 1.79083 23.9042 2.02778 23.7125 2.21667C23.5208 2.40556 23.2833 2.5 23 2.5ZM15 9.5H1C0.716667 9.5 0.479167 9.40361 0.2875 9.21083C0.0958333 9.01803 0 8.77915 0 8.49417C0 8.20917 0.0958333 7.97222 0.2875 7.78333C0.479167 7.59444 0.716667 7.5 1 7.5H15C15.2833 7.5 15.5208 7.59639 15.7125 7.78917C15.9042 7.98197 16 8.22086 16 8.50583C16 8.79083 15.9042 9.02778 15.7125 9.21667C15.5208 9.40556 15.2833 9.5 15 9.5Z" fill="#E8C41C"/>
</svg>
